<svg xmlns="http://www.w3.org/2000/svg" viewBox="0 0 32 32" fill="currentColor">
  <path d="M16 2.2C8.3 2.2 2 8.8 2 16.8c0 6.3 4 11.3 9.6 13.2.7.2.9-.3.9-.7v-2.4c-3.9.9-4.7-1.9-4.7-1.9-.6-1.6-1.3-2-1.3-2-1.1-.8.1-.8.1-.8 1.2.1 1.9 1.2 1.9 1.2 1.1 1.9 2.9 1.3 3.6 1 .1-.8.4-1.3.7-1.6-3.1-.4-6.3-1.6-6.3-7 0-1.5.5-2.7 1.2-3.7-.1-.3-.5-1.5.1-3.1 0 0 1-.3 3.5 1.2 1-.3 2.1-.4 3.2-.4s2.2.1 3.2.4c2.5-1.5 3.5-1.2 3.5-1.2.6 1.6.2 2.8.1 3.1.7 1 1.2 2.2 1.2 3.7 0 5.4-3.2 6.6-6.3 7 .4.4.8 1.1.8 2.2v3.3c0 .4.2.9.9.7C26 28.1 30 23.1 30 16.8c0-8-6.3-14.6-14-14.6z"/>
</svg>